name D:\school\WTK\thesis\model\3dpredictsim\Results\Final\Fal_s1_bCst_PF_Song2011_ls150_MT_nl_Song2011_MTP_Mu0_ig1_v12.mot
datacolumns 128
datarows 4
range 1.66458809 1.69787985
endheader
time	pelvis_tilt	pelvis_list	pelvis_rotation	pelvis_tx	pelvis_ty	pelvis_tz	hip_flexion_l	hip_adduction_l	hip_rotation_l	hip_flexion_r	hip_adduction_r	hip_rotation_r	knee_angle_l	knee_angle_r	ankle_angle_l	ankle_angle_r	subtalar_angle_l	subtalar_angle_r	tmt_angle_l	tmt_angle_r	mtp_angle_l	mtp_angle_r	lumbar_extension	lumbar_bending	lumbar_rotation	arm_flex_l	arm_add_l	arm_rot_l	arm_flex_r	arm_add_r	arm_rot_r	elbow_flex_l	elbow_flex_r	pro_sup_l	pro_sup_r	glut_med1_l/activation	glut_med2_l/activation	glut_med3_l/activation	glut_min1_l/activation	glut_min2_l/activation	glut_min3_l/activation	semimem_l/activation	semiten_l/activation	bifemlh_l/activation	bifemsh_l/activation	sar_l/activation	add_long_l/activation	add_brev_l/activation	add_mag1_l/activation	add_mag2_l/activation	add_mag3_l/activation	tfl_l/activation	pect_l/activation	grac_l/activation	glut_max1_l/activation	glut_max2_l/activation	glut_max3_l/activation	iliacus_l/activation	psoas_l/activation	quad_fem_l/activation	gem_l/activation	peri_l/activation	rect_fem_l/activation	vas_med_l/activation	vas_int_l/activation	vas_lat_l/activation	med_gas_l/activation	lat_gas_l/activation	soleus_l/activation	tib_post_l/activation	flex_dig_l/activation	flex_hal_l/activation	tib_ant_l/activation	per_brev_l/activation	per_long_l/activation	per_tert_l/activation	ext_dig_l/activation	ext_hal_l/activation	ercspn_l/activation	intobl_l/activation	extobl_l/activation	glut_med1_r/activation	glut_med2_r/activation	glut_med3_r/activation	glut_min1_r/activation	glut_min2_r/activation	glut_min3_r/activation	semimem_r/activation	semiten_r/activation	bifemlh_r/activation	bifemsh_r/activation	sar_r/activation	add_long_r/activation	add_brev_r/activation	add_mag1_r/activation	add_mag2_r/activation	add_mag3_r/activation	tfl_r/activation	pect_r/activation	grac_r/activation	glut_max1_r/activation	glut_max2_r/activation	glut_max3_r/activation	iliacus_r/activation	psoas_r/activation	quad_fem_r/activation	gem_r/activation	peri_r/activation	rect_fem_r/activation	vas_med_r/activation	vas_int_r/activation	vas_lat_r/activation	med_gas_r/activation	lat_gas_r/activation	soleus_r/activation	tib_post_r/activation	flex_dig_r/activation	flex_hal_r/activation	tib_ant_r/activation	per_brev_r/activation	per_long_r/activation	per_tert_r/activation	ext_dig_r/activation	ext_hal_r/activation	ercspn_r/activation	intobl_r/activation	extobl_r/activation	
          1.66458809	         -2.93017627	          1.80779172	         -4.18603036	          1.99750571	          0.92194099	          0.00222139	         28.50521867	          3.58263480	         -2.59085680	        -16.24431482	          0.23505592	          5.89243358	        -11.32418927	         -6.00510151	          3.33251718	         -1.28642554	         -4.46058630	          5.21375181	         -0.24944709	          2.77891270	         23.63092985	         26.71303522	         -2.01188145	         -0.21841539	          1.74857325	         -3.39216912	        -13.45950693	          8.38491384	          5.07754951	        -13.45204348	         16.92870064	         15.65116220	         30.07653252	         86.51662706	         86.51662706	          0.05000041	          0.05000043	          0.05924790	          0.05000011	          0.05000015	          0.05000107	          0.05924797	          0.05924815	          0.17470017	          0.05000029	          0.05000039	          0.11769259	          0.21057186	          0.20247176	          0.16505794	          0.10533113	          0.05924770	          0.05000065	          0.10067664	          0.05924867	          0.05934008	          0.10313607	          0.05000007	          0.05000009	          0.18667853	          0.05000122	          0.05000034	          0.05000018	          0.09776921	          0.09826121	          0.08417454	          0.05000031	          0.05000035	          0.05728100	          0.05000005	          0.05000035	          0.05000031	          0.48473468	          0.21506216	          0.18379545	          0.14883315	          0.45028939	          0.10413316	          0.05924774	          0.11342633	          0.11336716	          0.37666312	          0.10260286	          0.07507325	          0.33229772	          0.21638100	          0.11196678	          0.05000103	          0.05000024	          0.05000015	          0.05943624	          0.09979574	          0.05000009	          0.05000010	          0.05000016	          0.05000058	          0.05000040	          0.32892713	          0.05000039	          0.05000036	          0.05003762	          0.05000222	          0.05000119	          0.36865139	          0.61137534	          0.05000018	          0.05000068	          0.05628529	          0.16881094	          0.05000097	          0.05000058	          0.05000053	          0.28651730	          0.40980415	          0.31410456	          0.33246496	          0.30546523	          0.36130613	          0.05000004	          0.05000603	          0.08408628	          0.05000028	          0.05000008	          0.05000031	          0.05000001	          0.05000001	          0.05000005	
          1.67568534	         -2.92752961	          1.90051003	         -4.44589734	          2.01341069	          0.92102986	          0.00200969	         27.88347667	          3.93953852	         -2.40885427	        -16.16339271	         -0.03553592	          5.69339832	        -11.18045691	         -7.79858947	          2.80041600	         -1.78144337	         -4.67308372	          6.06292839	         -0.24812504	          2.44293427	         23.69632163	         28.28608130	         -1.82725865	         -0.41718060	          1.82070661	         -4.18727323	        -13.46418995	          8.07810514	          4.84919306	        -13.45933043	         17.20431730	         15.24424875	         31.17100847	         86.51662706	         86.51662706	          0.05012049	          0.05000033	          0.05000032	          0.05924769	          0.05002119	          0.05000025	          0.05000026	          0.05000048	          0.14989000	          0.05000038	          0.05000195	          0.10415807	          0.23121040	          0.24967802	          0.17742304	          0.10183181	          0.05000014	          0.07020470	          0.08496325	          0.05000097	          0.05007801	          0.11548791	          0.06241754	          0.05924814	          0.51359293	          0.15194981	          0.11809957	          0.07020671	          0.19062421	          0.19101937	          0.16314052	          0.05000000	          0.05000002	          0.05000000	          0.05067758	          0.05000118	          0.05000112	          0.55140041	          0.18149412	          0.19846207	          0.29509567	          0.46022350	          0.11474347	          0.05000006	          0.09572213	          0.09567220	          0.31787163	          0.08658805	          0.06335543	          0.28043099	          0.18260712	          0.09449043	          0.05000155	          0.05000041	          0.05000051	          0.05015918	          0.08421927	          0.09568000	          0.08039007	          0.05001157	          0.05000185	          0.05000243	          0.27758658	          0.05973713	          0.05000197	          0.05000096	          0.05000077	          0.05000090	          0.31111031	          0.55478727	          0.05000022	          0.05000180	          0.05924760	          0.14246217	          0.05000147	          0.15030156	          0.15219122	          0.24179611	          0.34583973	          0.29062980	          0.31941857	          0.28339798	          0.36821079	          0.05000005	          0.05000026	          0.08195794	          0.05000021	          0.05000006	          0.05000030	          0.05000007	          0.07020588	          0.05000006	
          1.68678260	         -2.92130771	          1.99809977	         -4.68562630	          2.02963050	          0.92019101	          0.00181174	         27.14588681	          4.21863115	         -2.17126927	        -16.00534698	         -0.31370696	          5.48551586	        -11.47059434	         -9.72069535	          2.28284569	         -2.42813096	         -4.91553005	          6.90527381	         -0.35009281	          2.01542395	         23.81950845	         29.93871836	         -1.62072254	         -0.62823375	          1.88249410	         -5.02675124	        -13.47531709	          7.80973576	          4.54017474	        -13.46467213	         17.40433293	         14.90696513	         32.27072867	         86.51662706	         86.51662706	          0.23400397	          0.05000013	          0.05000020	          0.05000017	          0.05000012	          0.25290400	          0.06649780	          0.05000051	          0.13406853	          0.05000011	          0.05000033	          0.08790058	          0.19512199	          0.21070707	          0.14973010	          0.10338715	          0.05000110	          0.05924814	          0.07171350	          0.05000033	          0.07444157	          0.09746206	          0.05267536	          0.05000070	          0.43342853	          0.12823272	          0.17196296	          0.05924847	          0.16087062	          0.16120410	          0.13767672	          0.05950392	          0.05924868	          0.05924787	          0.05000008	          0.05000068	          0.05000082	          0.52294072	          0.29374523	          0.16748519	          0.26919964	          0.47190023	          0.09683370	          0.05000002	          0.11496755	          0.08073916	          0.37192019	          0.07307293	          0.05346662	          0.23665997	          0.15410485	          0.07974187	          0.05000151	          0.05000051	          0.05000035	          0.05000010	          0.07107407	          0.13975342	          0.07872535	          0.05924822	          0.05924639	          0.05924860	          0.23443554	          0.05041348	          0.05000161	          0.05007602	          0.05201574	          0.05924725	          0.26456131	          0.54063802	          0.05000730	          0.05000077	          0.05000009	          0.12022594	          0.10802528	          0.12684251	          0.12843741	          0.20405523	          0.29185917	          0.24526670	          0.26956270	          0.23916419	          0.31073859	          0.05000002	          0.05000027	          0.11501194	          0.05000009	          0.05000002	          0.05000013	          0.05000011	          0.05924776	          0.05924769	
          1.69787985	         -2.91315001	          2.10113614	         -4.89741751	          2.04601461	          0.91943470	          0.00160181	         26.30469744	          4.45108514	         -1.91951007	        -15.74300821	         -0.59717022	          5.27968488	        -11.76836153	        -11.79825989	          1.86791385	         -3.25979922	         -5.16694106	          7.72432652	         -0.32480410	          1.53990092	         24.04167381	         31.63782588	         -1.40856760	         -0.85217185	          1.93684340	         -5.87386502	        -13.49095235	          7.58518559	          4.17058031	        -13.47316942	         17.54347385	         14.62314632	         33.36721819	         86.51662706	         86.51662706	          0.32607626	          0.25263098	          0.24944789	          0.13281205	          0.22138202	          0.21342959	          0.05611868	          0.07551825	          0.11314244	          0.07020627	          0.05000173	          0.07418060	          0.16466630	          0.17781888	          0.12635969	          0.13505414	          0.05000036	          0.05000067	          0.06052031	          0.18435042	          0.14196527	          0.09684277	          0.05000007	          0.05000010	          0.36577664	          0.10821756	          0.14512215	          0.05000067	          0.13576140	          0.13604320	          0.11618763	          0.05021636	          0.05000096	          0.05000017	          0.05000004	          0.05000022	          0.05000018	          0.60681053	          0.27290186	          0.16409891	          0.50447099	          0.49341935	          0.17000110	          0.07016086	          0.09856821	          0.06813695	          0.35375831	          0.06166732	          0.05000007	          0.33952546	          0.13005139	          0.06729537	          0.05000207	          0.05000021	          0.05000018	          0.05000030	          0.06002873	          0.13955098	          0.06643770	          0.05000088	          0.05000128	          0.05000132	          0.26992704	          0.06149983	          0.05000072	          0.05000101	          0.05000064	          0.05000061	          0.22326723	          0.49615000	          0.05000008	          0.05000055	          0.05000030	          0.14061711	          0.09116435	          0.10704470	          0.12086403	          0.17220516	          0.24630418	          0.20698412	          0.22748791	          0.20183428	          0.26223698	          0.05000003	          0.08044126	          0.12137189	          0.05000020	          0.05000059	          0.05000026	          0.05629080	          0.05000005	          0.05000003	
